# xmcd
#
# Track frame offsets: 
#        150
#        12043
#        23215
#        33161
#        43490
#        52654
#        66939
#        81517
#        91703
#        105121
#        121869
#        131097
#        143136
#        155910
#        165274
#        175247
#
# Disc length: 2450 seconds
#
# Revision: 1
# Processed by: cddbd v1.5.2PL0 Copyright (c) Steve Scherf et al.
# Submitted via: ExactAudioCopy v0.95b3
#
DISCID=c4099010
DTITLE=Gilbert Bécaud - Quand tu danses
DYEAR=2004
DGENRE=Chanson
TTITLE0=Quand tu danses
TTITLE1=Me-que Me-que
TTITLE2=Mes mains
TTITLE3=Viens
TTITLE4=C'etait mon copain
TTITLE5=Les croix
TTITLE6=La ballade des baladins
TTITLE7=Ah! Dites moi pourquoi je l'aime
TTITLE8=Il faut batir ta maison
TTITLE9=Donne-moi
TTITLE10=Ding-dong, sonnez
TTITLE11=Accroche-toi a ton etoile
TTITLE12=Moi je me mefie des anges
TTITLE13=Madame Pompadour
TTITLE14=Un nouveau printemps
TTITLE15=Moi je sais
EXTD=
EXTT0=
EXTT1=
EXTT2=
EXTT3=
EXTT4=
EXTT5=
EXTT6=
EXTT7=
EXTT8=
EXTT9=
EXTT10=
EXTT11=
EXTT12=
EXTT13=
EXTT14=
EXTT15=
PLAYORDER=
